# xmcd
#
# Track frame offsets:
#	150
#	14868
#	28383
#	49986
#	65512
#	84487
#	104510
#	124018
#	138494
#	157537
#	177811
#	192832
#	208181
#	227063
#	239598
#
# Disc length: 3364 seconds
#
# Revision: 1
# Processed by: cddbd v1.5.2PL0 Copyright (c) Steve Scherf et al.
# Submitted via: audiograbber 1.83.01
#
DISCID=d60d220f
DTITLE=chartbuster - CBCDG60225
DYEAR=1900
DGENRE=karaoke
TTITLE0=Toby Keith - I Wanna Talk About Me
TTITLE1=Hal Ketchum - Don't let Go
TTITLE2=Sara Evans - Saints And Angels
TTITLE3=Tracy Lawrence - Let's Don't Have To Be So Hard
TTITLE4=Billy Gilman - Elisabeth
TTITLE5=Emerson Drive - Only God Could Stop Me Loving You
TTITLE6=Jamie O'Neal - Shiver
TTITLE7=Gene Watson - Next To Nothin'
TTITLE8=Confederate RailRoad - That's What Brothers Do
TTITLE9=Shannon Brown - Baby I Lied
TTITLE10=Charlie Robison - Right Man For The Job
TTITLE11=Jeffrey Steele - Something In The Water
TTITLE12=Jo Dee Messina - Bring On The Rain
TTITLE13=Ricky Van Shelton - Somebody's Gonna Lose
TTITLE14=Merle Haggard - Think About A Lullaby
EXTD=
EXTT0=
EXTT1=
EXTT2=
EXTT3=
EXTT4=
EXTT5=
EXTT6=
EXTT7=
EXTT8=
EXTT9=
EXTT10=
EXTT11=
EXTT12=
EXTT13=
EXTT14=
PLAYORDER=
